<?xml version="1.0" encoding="UTF-8"?>
<svg height="16px" viewBox="0 0 16 16" width="16px" xmlns="http://www.w3.org/2000/svg">
    <path d="m 7.539062 2.214844 c -3.578124 0 -6.5 2.921875 -6.5 6.5 s 2.921876 6.5 6.5 6.5 c 1.429688 0 2.753907 -0.46875 3.828126 -1.257813 l 2.945312 2.945313 c 0.957031 0.9375 2.363281 -0.5 1.40625 -1.4375 l -2.929688 -2.929688 c 0.785157 -1.074218 1.25 -2.394531 1.25 -3.820312 c 0 -3.578125 -2.921874 -6.5 -6.5 -6.5 z m 0 2 c 2.496094 0 4.5 2.003906 4.5 4.5 s -2.003906 4.5 -4.5 4.5 c -2.496093 0 -4.5 -2.003906 -4.5 -4.5 s 2.003907 -4.5 4.5 -4.5 z m 0 0" fill="#2e3436"/>
</svg>
