<?xml version="1.0" encoding="UTF-8"?>
<svg height="128px" viewBox="0 0 128 128" width="128px" xmlns="http://www.w3.org/2000/svg" xmlns:xlink="http://www.w3.org/1999/xlink">
    <linearGradient id="a" gradientUnits="userSpaceOnUse" x1="115.941984" x2="13.658011" y1="94.471695" y2="31.718292">
        <stop offset="0" stop-color="#ffd700"/>
        <stop offset="0.9" stop-color="#d4a017"/>
    </linearGradient>
    <path d="m 124.800781 63.09375 c 0 33.136719 -26.863281 60 -60 60 s -60 -26.863281 -60 -60 s 26.863281 -60 60 -60 s 60 26.863281 60 60 z m 0 0" fill="url(#a)"/>
    <g fill="#aa7800">
        <path d="m 45.738281 45.769531 c 0 4.15625 -3.371093 7.527344 -7.53125 7.527344 c -4.15625 0 -7.527343 -3.371094 -7.527343 -7.527344 c 0 -4.160156 3.371093 -7.53125 7.527343 -7.53125 c 4.160157 0 7.53125 3.371094 7.53125 7.53125 z m 0 0"/>
        <path d="m 38.796875 68.085938 c 0 3.300781 -2.671875 5.976562 -5.972656 5.976562 s -5.976563 -2.675781 -5.976563 -5.976562 c 0 -3.300782 2.675782 -5.972657 5.976563 -5.972657 s 5.972656 2.671875 5.972656 5.972657 z m 0 0"/>
        <path d="m 48.496094 88.644531 c 0 3.007813 -2.441406 5.449219 -5.453125 5.449219 c -3.007813 0 -5.449219 -2.441406 -5.449219 -5.449219 c 0 -3.011719 2.441406 -5.453125 5.449219 -5.453125 c 3.011719 0 5.453125 2.441406 5.453125 5.453125 z m 0 0"/>
        <path d="m 69.265625 97.820312 c 0 2.863282 -2.316406 5.179688 -5.179687 5.179688 c -2.859376 0 -5.179688 -2.316406 -5.179688 -5.179688 c 0 -2.859374 2.320312 -5.175781 5.179688 -5.175781 c 2.863281 0 5.179687 2.316407 5.179687 5.175781 z m 0 0"/>
        <path d="m 90.519531 91.328125 c 0 2.4375 -1.976562 4.414063 -4.414062 4.414063 s -4.414063 -1.976563 -4.414063 -4.414063 s 1.976563 -4.414063 4.414063 -4.414063 s 4.414062 1.976563 4.414062 4.414063 z m 0 0"/>
        <path d="m 102.753906 72.199219 c 0 2.179687 -1.769531 3.949219 -3.953125 3.949219 c -2.183593 0 -3.953125 -1.769532 -3.953125 -3.949219 c 0 -2.183594 1.769532 -3.953125 3.953125 -3.953125 c 2.183594 0 3.953125 1.769531 3.953125 3.953125 z m 0 0"/>
        <path d="m 96.761719 52.402344 c 1.664062 -0.292969 2.777343 -1.882813 2.484375 -3.550782 c -0.292969 -1.667968 -1.882813 -2.78125 -3.550782 -2.488281 c -1.667968 0.292969 -2.78125 1.882813 -2.488281 3.550781 c 0.296875 1.671876 1.882813 2.785157 3.554688 2.488282 z m 0 0"/>
        <path d="m 81.71875 33.5625 c 0 1.175781 -0.953125 2.125 -2.128906 2.125 c -1.171875 0 -2.125 -0.949219 -2.125 -2.125 s 0.953125 -2.128906 2.125 -2.128906 c 1.175781 0 2.128906 0.953125 2.128906 2.128906 z m 0 0"/>
        <path d="m 65.621094 32.132812 c 0 4.941407 -4.003906 8.945313 -8.941406 8.945313 c -4.941407 0 -8.945313 -4.003906 -8.945313 -8.945313 c 0 -4.9375 4.003906 -8.941406 8.945313 -8.941406 c 4.9375 0 8.941406 4.003906 8.941406 8.941406 z m 0 0"/>
        <path d="m 53.898438 46.511719 h -2.972657 c -1.050781 0 -1.910156 0.855469 -1.910156 1.90625 v 5.941406 c 0 1.054687 0.859375 1.910156 1.910156 1.910156 h 2.972657 c 1.050781 0 1.90625 -0.855469 1.90625 -1.910156 v -5.941406 c 0 -1.050781 -0.855469 -1.90625 -1.90625 -1.90625 z m 0.632812 7.847656 c 0 0.351563 -0.285156 0.636719 -0.632812 0.636719 h -2.972657 c -0.347656 0 -0.636719 -0.285156 -0.636719 -0.636719 v -5.9375 c 0 -0.351563 0.289063 -0.636719 0.636719 -0.636719 h 2.972657 c 0.347656 0 0.632812 0.285156 0.632812 0.636719 z m 0 0"/>
        <path d="m 69.703125 56.269531 h 2.96875 c 1.054687 0 1.910156 -0.855469 1.910156 -1.910156 v -5.9375 c 0 -1.054687 -0.855469 -1.910156 -1.910156 -1.910156 h -2.96875 c -1.050781 0 -1.90625 0.855469 -1.90625 1.910156 v 5.9375 c 0 1.054687 0.855469 1.910156 1.90625 1.910156 z m -0.636719 -7.847656 c 0 -0.351563 0.285156 -0.636719 0.636719 -0.636719 h 2.96875 c 0.351563 0 0.636719 0.285156 0.636719 0.636719 v 5.9375 c 0 0.351563 -0.285156 0.636719 -0.636719 0.636719 h -2.96875 c -0.351563 0 -0.636719 -0.285156 -0.636719 -0.636719 z m 0 0"/>
        <path d="m 66.097656 68.789062 v -5.941406 c 0 -1.054687 -0.859375 -1.910156 -1.910156 -1.910156 h -2.972656 c -1.050782 0 -1.90625 0.855469 -1.90625 1.910156 v 5.941406 c 0 1.050782 0.855468 1.90625 1.90625 1.90625 h 2.972656 c 1.050781 0 1.910156 -0.855468 1.910156 -1.90625 z m -5.519531 0 v -5.941406 c 0 -0.351562 0.289063 -0.636718 0.636719 -0.636718 h 2.972656 c 0.351562 0 0.632812 0.285156 0.632812 0.636718 v 5.941406 c 0 0.347657 -0.285156 0.632813 -0.632812 0.632813 h -2.972656 c -0.347656 0.003906 -0.636719 -0.285156 -0.636719 -0.632813 z m 0 0"/>
        <path d="m 53.3125 73.761719 h -2.96875 c -1.050781 0 -1.910156 0.855469 -1.910156 1.910156 v 5.941406 c 0 1.050781 0.859375 1.90625 1.910156 1.90625 h 2.96875 c 1.054688 0 1.910156 -0.855469 1.910156 -1.90625 v -5.941406 c 0 -1.054687 -0.855468 -1.910156 -1.910156 -1.910156 z m 0.636719 7.851562 c 0 0.347657 -0.285157 0.632813 -0.636719 0.632813 h -2.96875 c -0.351562 0 -0.636719 -0.285156 -0.636719 -0.632813 v -5.941406 c 0 -0.351563 0.285157 -0.636719 0.636719 -0.636719 h 2.96875 c 0.351562 0 0.636719 0.285156 0.636719 0.636719 z m 0 0"/>
        <path d="m 73.425781 74.023438 h -2.96875 c -1.050781 0 -1.90625 0.855468 -1.90625 1.90625 v 5.945312 c 0 1.050781 0.855469 1.90625 1.90625 1.90625 h 2.96875 c 1.054688 0 1.910157 -0.855469 1.910157 -1.90625 v -5.945312 c 0 -1.050782 -0.855469 -1.90625 -1.910157 -1.90625 z m 0.636719 7.851562 c 0 0.347656 -0.285156 0.632812 -0.636719 0.632812 h -2.96875 c -0.351562 0 -0.636719 -0.285156 -0.636719 -0.632812 v -5.945312 c 0 -0.347657 0.289063 -0.632813 0.636719 -0.632813 h 2.96875 c 0.351563 0 0.636719 0.285156 0.636719 0.632813 z m 0 0"/>
        <path d="m 59.5625 49.472656 l 2.503906 -1.742187 v 7.902343 c 0 0.355469 0.285156 0.636719 0.636719 0.636719 s 0.632813 -0.285156 0.632813 -0.636719 v -9.121093 c 0 -0.238281 -0.128907 -0.457031 -0.339844 -0.566407 c -0.210938 -0.113281 -0.464844 -0.09375 -0.65625 0.042969 l -3.503906 2.4375 c -0.289063 0.203125 -0.359376 0.597657 -0.15625 0.886719 c 0.199218 0.289062 0.597656 0.359375 0.882812 0.160156 z m 0 0"/>
        <path d="m 53.578125 71.015625 c 0.351563 0 0.636719 -0.285156 0.636719 -0.636719 v -9.121094 c 0 -0.238281 -0.132813 -0.457031 -0.34375 -0.566406 c -0.207032 -0.109375 -0.460938 -0.09375 -0.65625 0.042969 l -3.5 2.441406 c -0.289063 0.199219 -0.359375 0.597657 -0.160156 0.882813 c 0.203124 0.289062 0.597656 0.359375 0.886718 0.160156 l 2.5 -1.742188 v 7.902344 c 0.003906 0.351563 0.285156 0.636719 0.636719 0.636719 z m 0 0"/>
        <path d="m 63.445312 83.839844 c 0.351563 0 0.636719 -0.285156 0.636719 -0.636719 v -9.125 c 0 -0.234375 -0.132812 -0.453125 -0.34375 -0.5625 c -0.210937 -0.109375 -0.460937 -0.09375 -0.65625 0.042969 l -3.5 2.4375 c -0.289062 0.199218 -0.359375 0.601562 -0.160156 0.886718 c 0.203125 0.289063 0.597656 0.359376 0.886719 0.15625 l 2.5 -1.742187 v 7.90625 c 0 0.351563 0.285156 0.636719 0.636718 0.636719 z m 0 0"/>
        <path d="m 72.941406 71.015625 c 0.347656 0 0.632813 -0.285156 0.632813 -0.636719 v -9.121094 c 0 -0.238281 -0.132813 -0.457031 -0.339844 -0.566406 c -0.210937 -0.109375 -0.464844 -0.09375 -0.660156 0.042969 l -3.5 2.441406 c -0.289063 0.199219 -0.359375 0.597657 -0.160157 0.882813 c 0.203126 0.289062 0.601563 0.359375 0.886719 0.160156 l 2.5 -1.742188 v 7.902344 c 0 0.351563 0.289063 0.636719 0.640625 0.636719 z m 0 0"/>
        <path d="m 83.292969 56.269531 c 1.054687 0 1.910156 -0.855469 1.910156 -1.910156 v -5.9375 c 0 -1.054687 -0.855469 -1.910156 -1.910156 -1.910156 h -2.96875 c -1.054688 0 -1.910157 0.855469 -1.910157 1.910156 v 5.9375 c 0 1.054687 0.855469 1.910156 1.910157 1.910156 z m -3.605469 -1.910156 v -5.9375 c 0 -0.351563 0.285156 -0.636719 0.632812 -0.636719 h 2.972657 c 0.351562 0 0.636719 0.285156 0.636719 0.636719 v 5.9375 c 0 0.351563 -0.289063 0.636719 -0.636719 0.636719 h -2.96875 c -0.351563 0 -0.636719 -0.285156 -0.636719 -0.636719 z m 0 0"/>
        <path d="m 85.953125 81.875 v -5.945312 c 0 -1.050782 -0.855469 -1.90625 -1.90625 -1.90625 h -2.972656 c -1.050781 0 -1.90625 0.855468 -1.90625 1.90625 v 5.945312 c 0 1.050781 0.855469 1.90625 1.90625 1.90625 h 2.972656 c 1.050781 0 1.90625 -0.855469 1.90625 -1.90625 z m -5.515625 0 v -5.945312 c 0 -0.347657 0.289062 -0.632813 0.636719 -0.632813 h 2.96875 c 0.351562 0 0.636719 0.285156 0.636719 0.632813 v 5.945312 c 0 0.347656 -0.285157 0.632812 -0.636719 0.632812 h -2.96875 c -0.347657 0 -0.636719 -0.285156 -0.636719 -0.632812 z m 0 0"/>
        <path d="m 83.558594 71.015625 c 0.351562 0 0.636718 -0.285156 0.636718 -0.636719 v -9.121094 c 0 -0.238281 -0.132812 -0.457031 -0.34375 -0.566406 c -0.210937 -0.109375 -0.460937 -0.09375 -0.660156 0.042969 l -3.496094 2.441406 c -0.292968 0.199219 -0.363281 0.597657 -0.160156 0.882813 c 0.199219 0.289062 0.597656 0.359375 0.886719 0.160156 l 2.5 -1.742188 v 7.902344 c 0 0.351563 0.285156 0.636719 0.636719 0.636719 z m 0 0"/>
    </g>
</svg>
