<?xml version="1.0" encoding="UTF-8"?>
<svg height="128px" viewBox="0 0 128 128" width="128px" xmlns="http://www.w3.org/2000/svg" xmlns:xlink="http://www.w3.org/1999/xlink">
    <linearGradient id="a" gradientUnits="userSpaceOnUse" x1="4.8" x2="124.799993" y1="63.094986" y2="63.094986">
        <stop offset="0" stop-color="#1a3c5e"/>
        <stop offset="0.901083" stop-color="#0861bc"/>
    </linearGradient>
    <path d="m 124.800781 63.09375 c 0 33.136719 -26.863281 60 -60 60 s -60 -26.863281 -60 -60 s 26.863281 -60 60 -60 s 60 26.863281 60 60 z m 0 0" fill="url(#a)"/>
    <g fill="#0e9dde">
        <path d="m 47.667969 56.066406 l 8.921875 -2.234375 l 2.234375 -8.917969 l -27.878907 -16.726562 z m 0 0"/>
        <path d="m 76.8125 53.792969 l 8.902344 2.1875 l 16.613281 -27.933594 l -27.757813 16.792969 z m 0 0"/>
        <path d="m 85.773438 71.753906 l -8.898438 2.261719 l -2.199219 8.9375 l 27.933594 16.621094 z m 0 0"/>
        <path d="m 56.628906 74.074219 l -8.960937 -2.230469 l -16.722657 27.871094 l 27.9375 -16.773438 z m 0 0"/>
        <path d="m 66.71875 22.921875 l -8.199219 32.808594 l -32.816406 8.207031 l 32.84375 8.210938 l 8.332031 32.804687 l 8.085938 -32.859375 l 32.769531 -8.316406 l -32.820313 -8.078125 z m 0 46.140625 c -2.828125 0 -5.125 -2.296875 -5.125 -5.125 s 2.296875 -5.128906 5.125 -5.128906 s 5.128906 2.300781 5.128906 5.128906 s -2.300781 5.125 -5.128906 5.125 z m 0 0"/>
    </g>
</svg>
