<?xml version="1.0" encoding="UTF-8"?>
<svg height="128px" viewBox="0 0 128 128" width="128px" xmlns="http://www.w3.org/2000/svg" xmlns:xlink="http://www.w3.org/1999/xlink">
    <linearGradient id="a" gradientTransform="matrix(0.659952 0.659952 -0.659952 0.659952 177.811844 -141.304329)" gradientUnits="userSpaceOnUse" x1="139.477295" x2="25.039328" y1="259.588104" y2="189.370285">
        <stop offset="0" stop-color="#ffd700"/>
        <stop offset="0.89754" stop-color="#d4a017"/>
    </linearGradient>
    <path d="m 64.960938 0.0195312 c 30.929687 0 56 25.0703128 56 55.9999998 v 8 c 0 30.929688 -25.070313 56 -56 56 c -30.929688 0 -56 -25.070312 -56 -56 v -8 c 0 -30.929687 25.070312 -55.9999998 56 -55.9999998 z m 0 0" fill="#b8860b"/>
    <path d="m 104.554688 95.613281 c -21.867188 21.875 -57.320313 21.875 -79.191407 0 c -21.871093 -21.867187 -21.871093 -57.320312 0 -79.191406 c 21.871094 -21.871094 57.324219 -21.871094 79.191407 0 c 21.875 21.871094 21.875 57.324219 0 79.191406 z m 0 0" fill="url(#a)"/>
    <g fill="#aa7800">
        <path d="m 47.324219 37.464844 c 0 3.867187 -3.132813 7 -7 7 c -3.867188 0 -7 -3.132813 -7 -7 c 0 -3.867188 3.132812 -7 7 -7 c 3.867187 0 7 3.132812 7 7 z m 0 0"/>
        <path d="m 40.710938 59.707031 c 0 3.039063 -2.460938 5.5 -5.5 5.5 c -3.035157 0 -5.5 -2.460937 -5.5 -5.5 c 0 -3.035156 2.464843 -5.5 5.5 -5.5 c 3.039062 0 5.5 2.464844 5.5 5.5 z m 0 0"/>
        <path d="m 49.84375 80.175781 c 0 2.757813 -2.238281 5 -5 5 s -5 -2.242187 -5 -5 c 0 -2.761719 2.238281 -5 5 -5 s 5 2.238281 5 5 z m 0 0"/>
        <path d="m 69.648438 89.570312 c 0 2.761719 -2.171876 5 -4.851563 5 s -4.855469 -2.238281 -4.855469 -5 c 0 -2.761718 2.175782 -5 4.855469 -5 s 4.851563 2.238282 4.851563 5 z m 0 0"/>
        <path d="m 90.167969 83.242188 c 0 2.414062 -1.957031 4.371093 -4.371094 4.371093 s -4.371094 -1.957031 -4.371094 -4.371093 c 0 -2.414063 1.957031 -4.367188 4.371094 -4.367188 s 4.371094 1.953125 4.371094 4.367188 z m 0 0"/>
        <path d="m 101.027344 63.90625 c 0 1.988281 -1.609375 3.601562 -3.597656 3.601562 c -1.988282 0 -3.597657 -1.613281 -3.597657 -3.601562 s 1.609375 -3.597656 3.597657 -3.597656 c 1.988281 0 3.597656 1.609375 3.597656 3.597656 z m 0 0"/>
        <path d="m 95.632812 44.554688 c 1.570313 -0.292969 2.621094 -1.875 2.34375 -3.535157 c -0.273437 -1.660156 -1.773437 -2.765625 -3.347656 -2.472656 c -1.570312 0.292969 -2.621094 1.871094 -2.34375 3.53125 s 1.773438 2.765625 3.347656 2.476563 z m 0 0"/>
        <path d="m 81.4375 25.699219 c 0 1.101562 -0.894531 2 -2 2 c -1.101562 0 -2 -0.898438 -2 -2 c 0 -1.105469 0.898438 -2 2 -2 c 1.105469 0 2 0.894531 2 2 z m 0 0"/>
        <path d="m 66.40625 24 c 0 4.691406 -3.804688 8.5 -8.5 8.5 s -8.5 -3.808594 -8.5 -8.5 c 0 -4.695312 3.804688 -8.5 8.5 -8.5 s 8.5 3.804688 8.5 8.5 z m 0 0"/>
        <path d="m 55.21875 38.691406 h -2.800781 c -0.992188 0 -1.800781 0.851563 -1.800781 1.898438 v 5.910156 c 0 1.046875 0.808593 1.898438 1.800781 1.898438 h 2.800781 c 0.992188 0 1.796875 -0.851563 1.796875 -1.898438 v -5.910156 c 0 -1.046875 -0.804687 -1.898438 -1.796875 -1.898438 z m 0.597656 7.808594 c 0 0.347656 -0.269531 0.632812 -0.597656 0.632812 h -2.800781 c -0.332031 0 -0.601563 -0.285156 -0.601563 -0.632812 v -5.910156 c 0 -0.347656 0.269532 -0.628906 0.601563 -0.628906 h 2.800781 c 0.328125 0 0.597656 0.28125 0.597656 0.628906 z m 0 0"/>
        <path d="m 70.121094 48.398438 h 2.800781 c 0.992187 0 1.800781 -0.851563 1.800781 -1.898438 v -5.910156 c 0 -1.046875 -0.808594 -1.898438 -1.800781 -1.898438 h -2.800781 c -0.992188 0 -1.796875 0.851563 -1.796875 1.898438 v 5.910156 c 0 1.046875 0.804687 1.898438 1.796875 1.898438 z m -0.597656 -7.808594 c 0 -0.347656 0.269531 -0.628906 0.597656 -0.628906 h 2.800781 c 0.332031 0 0.597656 0.28125 0.597656 0.628906 v 5.910156 c 0 0.347656 -0.269531 0.632812 -0.597656 0.632812 h -2.800781 c -0.332032 0 -0.597656 -0.285156 -0.597656 -0.632812 z m 0 0"/>
        <path d="m 66.71875 60.847656 v -5.910156 c 0 -1.042969 -0.804688 -1.898438 -1.796875 -1.898438 h -2.804687 c -0.992188 0 -1.796876 0.855469 -1.796876 1.898438 v 5.910156 c 0 1.046875 0.804688 1.898438 1.796876 1.898438 h 2.804687 c 0.992187 0 1.796875 -0.851563 1.796875 -1.898438 z m -5.199219 0 v -5.910156 c 0 -0.347656 0.269531 -0.632812 0.597657 -0.632812 h 2.800781 c 0.332031 0 0.601562 0.285156 0.601562 0.632812 v 5.910156 c 0 0.347656 -0.269531 0.632813 -0.601562 0.632813 h -2.800781 c -0.328126 0 -0.597657 -0.285157 -0.597657 -0.632813 z m 0 0"/>
        <path d="m 54.667969 65.792969 h -2.800781 c -0.992188 0 -1.800782 0.855469 -1.800782 1.898437 v 5.910156 c 0 1.046876 0.808594 1.898438 1.800782 1.898438 h 2.800781 c 0.992187 0 1.796875 -0.851562 1.796875 -1.898438 v -5.910156 c 0 -1.042968 -0.804688 -1.898437 -1.796875 -1.898437 z m 0.597656 7.808593 c 0 0.347657 -0.265625 0.632813 -0.597656 0.632813 h -2.800781 c -0.332032 0 -0.601563 -0.285156 -0.601563 -0.632813 v -5.910156 c 0 -0.347656 0.273437 -0.632812 0.601563 -0.632812 h 2.800781 c 0.332031 0 0.597656 0.285156 0.597656 0.632812 z m 0 0"/>
        <path d="m 73.632812 66.054688 h -2.800781 c -0.992187 0 -1.796875 0.851562 -1.796875 1.898437 v 5.90625 c 0 1.050781 0.804688 1.898437 1.796875 1.898437 h 2.800781 c 0.992188 0 1.800782 -0.847656 1.800782 -1.898437 v -5.90625 c 0 -1.046875 -0.808594 -1.898437 -1.800782 -1.898437 z m 0.597657 7.804687 c 0 0.351563 -0.269531 0.632813 -0.597657 0.632813 h -2.800781 c -0.332031 0 -0.597656 -0.28125 -0.597656 -0.632813 v -5.90625 c 0 -0.351563 0.269531 -0.632813 0.597656 -0.632813 h 2.800781 c 0.332032 0 0.597657 0.285157 0.597657 0.632813 z m 0 0"/>
        <path d="m 60.5625 41.636719 l 2.359375 -1.730469 v 7.859375 c 0 0.351563 0.265625 0.632813 0.597656 0.632813 s 0.601563 -0.28125 0.601563 -0.632813 v -9.074219 c 0 -0.238281 -0.125 -0.453125 -0.324219 -0.5625 s -0.4375 -0.09375 -0.621094 0.042969 l -3.300781 2.425781 c -0.273438 0.199219 -0.339844 0.59375 -0.148438 0.882813 c 0.191407 0.285156 0.5625 0.355469 0.835938 0.15625 z m 0 0"/>
        <path d="m 54.917969 63.0625 c 0.332031 0 0.597656 -0.28125 0.597656 -0.632812 v -9.074219 c 0 -0.234375 -0.121094 -0.453125 -0.320313 -0.558594 c -0.199218 -0.113281 -0.4375 -0.09375 -0.621093 0.039063 l -3.300781 2.429687 c -0.273438 0.199219 -0.339844 0.59375 -0.148438 0.878906 c 0.1875 0.289063 0.5625 0.359375 0.832031 0.15625 l 2.359375 -1.730469 v 7.859376 c 0.003906 0.351562 0.269532 0.632812 0.601563 0.632812 z m 0 0"/>
        <path d="m 64.222656 75.816406 c 0.332032 0 0.597656 -0.285156 0.597656 -0.632812 v -9.074219 c 0 -0.234375 -0.125 -0.453125 -0.320312 -0.5625 c -0.199219 -0.109375 -0.4375 -0.089844 -0.625 0.042969 l -3.300781 2.425781 c -0.269531 0.199219 -0.335938 0.597656 -0.148438 0.882813 c 0.191407 0.285156 0.566407 0.355468 0.835938 0.15625 l 2.359375 -1.734376 v 7.863282 c 0 0.351562 0.265625 0.632812 0.601562 0.632812 z m 0 0"/>
        <path d="m 73.171875 63.0625 c 0.332031 0 0.601563 -0.28125 0.601563 -0.632812 v -9.074219 c 0 -0.234375 -0.125 -0.453125 -0.324219 -0.558594 c -0.195313 -0.113281 -0.4375 -0.09375 -0.621094 0.039063 l -3.296875 2.429687 c -0.277344 0.199219 -0.339844 0.59375 -0.152344 0.878906 c 0.191406 0.289063 0.5625 0.359375 0.835938 0.15625 l 2.355468 -1.730469 v 7.859376 c 0 0.351562 0.269532 0.632812 0.601563 0.632812 z m 0 0"/>
        <path d="m 82.933594 48.398438 c 0.996094 0 1.800781 -0.851563 1.800781 -1.898438 v -5.910156 c 0 -1.046875 -0.804687 -1.898438 -1.800781 -1.898438 h -2.796875 c -0.996094 0 -1.800781 0.851563 -1.800781 1.898438 v 5.910156 c 0 1.046875 0.804687 1.898438 1.800781 1.898438 z m -3.398438 -1.898438 v -5.910156 c 0 -0.347656 0.269532 -0.628906 0.597656 -0.628906 h 2.800782 c 0.332031 0 0.601562 0.28125 0.601562 0.628906 v 5.910156 c 0 0.347656 -0.269531 0.632812 -0.601562 0.632812 h -2.796875 c -0.332031 0 -0.601563 -0.285156 -0.601563 -0.632812 z m 0 0"/>
        <path d="m 85.445312 73.859375 v -5.90625 c 0 -1.046875 -0.808593 -1.898437 -1.800781 -1.898437 h -2.800781 c -0.992188 0 -1.796875 0.851562 -1.796875 1.898437 v 5.90625 c 0 1.050781 0.804687 1.898437 1.796875 1.898437 h 2.800781 c 0.992188 0 1.800781 -0.847656 1.800781 -1.898437 z m -5.203124 0 v -5.90625 c 0 -0.351563 0.269531 -0.632813 0.601562 -0.632813 h 2.800781 c 0.328125 0 0.597657 0.285157 0.597657 0.632813 v 5.90625 c 0 0.351563 -0.269532 0.632813 -0.597657 0.632813 h -2.800781 c -0.332031 0 -0.601562 -0.28125 -0.601562 -0.632813 z m 0 0"/>
        <path d="m 83.183594 63.0625 c 0.332031 0 0.601562 -0.28125 0.601562 -0.632812 v -9.074219 c 0 -0.234375 -0.125 -0.453125 -0.320312 -0.558594 c -0.199219 -0.113281 -0.4375 -0.09375 -0.625 0.039063 l -3.296875 2.429687 c -0.273438 0.199219 -0.339844 0.59375 -0.152344 0.878906 c 0.191406 0.289063 0.566406 0.359375 0.835937 0.15625 l 2.355469 -1.730469 v 7.859376 c 0.003907 0.351562 0.273438 0.632812 0.601563 0.632812 z m 0 0"/>
    </g>
</svg>
